<?xml version="1.0" encoding="UTF-8"?>
<!DOCTYPE svg PUBLIC "-//W3C//DTD SVG 1.1//EN" "http://www.w3.org/Graphics/SVG/1.1/DTD/svg11.dtd">
<svg version="1.1" xmlns="http://www.w3.org/2000/svg" xmlns:xlink="http://www.w3.org/1999/xlink" x="0" y="0" width="468" height="357" viewBox="0, 0, 468, 357">
  <g id="ƒŒƒCƒ_x201e__x0081__x005b__x0020_1">
    <path d="M112.316,260.375 L85.316,268.727 C83.229,269.375 81.933,271.391 82.221,273.551 C82.437,275.711 84.237,277.367 86.396,277.511 C88.556,277.655 91.076,278.015 93.812,278.591 C102.02,280.319 111.812,283.703 118.292,286.727 L120.164,282.695 L119.228,278.303 C114.188,279.383 108.716,280.175 103.388,280.751 C101.876,280.895 100.58,281.831 99.86,283.199 C99.212,284.567 99.212,286.151 100.004,287.447 C101.372,289.823 103.316,291.695 105.476,293.207 C109.292,295.871 113.828,297.383 118.724,298.535 C126.067,300.191 134.275,300.767 141.763,301.127 C145.507,301.271 149.107,301.415 152.275,301.559 C155.443,301.703 158.179,301.919 160.194,302.135 L160.77,297.743 L157.387,294.791 C155.947,296.447 154.147,297.959 151.987,299.327 C148.819,301.343 144.931,303.071 140.827,304.511 C136.723,305.951 132.547,307.175 128.587,308.399 C126.427,309.047 125.131,311.207 125.491,313.367 C125.851,315.599 127.795,317.183 130.027,317.111 C141.187,316.751 154.363,315.959 167.322,315.959 C173.514,315.959 179.634,316.175 185.394,316.607 C191.154,317.111 196.554,317.903 201.233,319.127 L202.313,314.807 L200.369,310.775 C196.41,312.719 192.234,314.231 187.914,316.175 C183.666,318.119 179.202,320.423 175.17,324.023 C173.946,325.103 173.442,326.687 173.73,328.271 C174.018,329.855 175.17,331.079 176.682,331.583 C184.242,334.103 192.522,334.823 200.945,334.823 C208.289,334.823 215.705,334.247 222.833,333.671 C229.961,333.095 236.728,332.519 242.704,332.447 C253.936,332.303 265.24,332.231 276.543,331.943 L276.399,327.479 L276.183,323.015 C272.583,323.159 268.984,324.311 265.312,325.823 C259.84,328.199 254.296,331.583 249.256,335.039 C244.216,338.495 239.752,342.023 236.584,344.615 C235.216,345.695 234.641,347.495 235.072,349.223 C235.504,350.951 236.944,352.175 238.672,352.463 C248.032,354.047 257.608,354.767 267.328,354.767 C289.719,354.767 312.614,351.095 335.006,346.343 C357.397,341.591 379.357,335.759 399.588,331.439 C411.612,328.847 422.987,327.047 434.075,327.047 C442.211,327.047 450.131,328.055 458.123,330.431 C460.21,331.079 462.37,330.143 463.378,328.199 C463.738,327.479 463.954,326.831 464.17,326.183 C464.746,324.239 464.962,322.223 464.962,320.351 C464.962,319.775 464.962,319.271 464.89,318.767 C464.674,317.039 463.522,315.599 461.938,315.023 C458.483,313.799 455.819,312.287 453.587,310.415 C451.931,309.047 450.491,307.463 449.339,305.735 C447.539,303.071 446.099,299.975 445.019,296.447 C443.939,292.919 443.147,288.959 442.499,284.639 C438.683,258 431.915,232.8 420.252,208.032 C418.236,203.712 415.86,198.24 413.268,192.192 C409.308,183.192 404.772,173.112 399.516,164.112 C396.852,159.576 394.044,155.328 391.02,151.512 C387.996,147.696 384.757,144.456 381.085,141.937 C380.005,141.217 378.709,140.929 377.485,141.289 C376.261,141.577 375.181,142.441 374.605,143.592 L377.413,145.032 L375.253,142.656 C374.965,142.872 374.749,143.232 374.605,143.52 L377.413,144.96 L375.253,142.585 L377.197,144.744 L376.405,141.937 C376.117,142.008 375.685,142.225 375.253,142.585 L377.197,144.744 L376.405,141.937 L376.837,143.304 L376.837,141.865 C376.837,141.865 376.693,141.865 376.405,141.937 L376.837,143.304 L376.837,141.865 C376.837,141.865 376.549,141.865 376.117,141.721 C375.325,141.505 374.029,141.073 372.517,140.425 C369.853,139.273 366.397,137.401 362.797,135.313 C357.325,132.145 351.421,128.329 346.31,125.089 C343.79,123.433 341.414,121.921 339.47,120.697 C338.462,120.049 337.598,119.545 336.806,119.041 C336.014,118.537 335.294,118.177 334.646,117.817 L334.646,117.817 C327.014,113.857 318.878,109.537 310.382,105.937 C301.887,102.337 292.959,99.529 283.599,98.737 C282.087,98.593 280.647,99.241 279.711,100.465 C278.775,101.689 278.559,103.273 279.063,104.713 C280.359,108.385 281.511,112.273 282.375,116.089 L286.695,115.081 L287.343,110.689 C282.519,109.969 277.191,107.881 271.648,105.505 C266.104,103.129 260.272,100.465 254.152,98.809 C242.2,95.641 229.745,92.545 217.289,90.961 C213.977,90.529 210.737,90.457 207.713,90.385 C204.617,90.313 201.665,90.241 198.857,90.025 L198.497,94.489 L198.209,98.953 C199.865,99.097 201.089,99.673 202.025,100.537 C202.889,101.401 203.465,102.553 203.537,104.137 L208.001,103.921 L207.641,99.457 C203.609,99.745 199.505,99.889 195.33,99.889 C177.474,99.889 158.899,97.513 140.251,97.513 C131.467,97.513 122.683,98.017 113.972,99.673 C111.884,100.033 110.372,101.833 110.3,103.993 C110.3,106.153 111.74,107.953 113.828,108.457 C123.907,110.617 133.195,114.865 143.203,118.897 L144.859,114.721 L144.859,110.257 C142.843,110.257 140.827,110.257 138.811,110.257 C117.356,110.257 95.684,110.329 74.013,112.705 C72.213,112.921 69.909,113.065 67.461,113.209 C63.717,113.425 59.541,113.713 55.581,114.361 C53.565,114.649 51.621,115.081 49.749,115.657 C47.877,116.233 46.078,116.953 44.494,118.105 C42.982,119.113 42.262,120.841 42.622,122.641 C42.91,124.369 44.278,125.809 46.006,126.169 C52.773,127.753 60.117,128.833 66.885,130.489 C70.269,131.353 73.509,132.289 76.461,133.585 C79.413,134.809 82.077,136.321 84.309,138.121 L87.116,134.665 L86.252,130.273 C64.581,134.377 44.422,141.937 24.478,149.856 L24.478,149.856 C20.734,151.368 16.63,152.664 12.67,154.824 C10.726,155.904 8.783,157.272 6.983,158.928 C5.255,160.656 3.671,162.672 2.447,165.192 C1.511,167.064 1.943,169.296 3.599,170.592 C8.351,174.552 13.75,177.576 18.718,180.672 C21.166,182.184 23.542,183.768 25.702,185.352 C27.79,186.936 29.662,188.592 31.174,190.392 L34.63,187.512 L34.342,183.048 C27.07,183.552 19.294,183.192 11.374,183.696 C9.646,183.84 8.135,184.92 7.487,186.576 C6.839,188.232 7.271,190.032 8.495,191.328 C15.838,198.744 24.766,204.216 34.054,208.968 C43.342,213.72 52.989,217.68 61.773,221.712 L63.645,217.68 L63.141,213.216 C59.109,213.648 54.501,214.008 49.893,214.656 C45.214,215.232 40.534,216.096 36.07,217.608 C34.486,218.184 33.262,219.624 33.118,221.28 C32.902,223.008 33.694,224.664 35.134,225.6 C44.35,231.504 54.573,235.176 64.437,238.776 C74.301,242.376 83.877,245.832 92.012,250.8 L94.316,246.984 L93.524,242.592 C89.708,243.24 85.172,243.384 80.349,243.384 C78.765,243.384 77.181,243.384 75.597,243.384 C72.357,243.384 69.045,243.456 65.805,243.672 C63.861,243.816 62.277,245.184 61.845,247.128 C61.413,249 62.205,250.944 63.861,251.952 C70.989,256.272 79.413,260.016 88.052,262.967 C96.692,265.847 105.62,267.935 113.756,268.583 C116.204,268.799 118.364,266.927 118.58,264.479 C118.796,262.031 116.924,259.871 114.476,259.655 C107.276,259.079 98.996,257.208 90.932,254.472 C82.869,251.736 74.949,248.208 68.469,244.32 L66.165,248.136 L66.525,252.6 C69.333,252.384 72.429,252.312 75.597,252.312 C77.181,252.312 78.765,252.312 80.349,252.312 C85.316,252.312 90.284,252.24 95.108,251.376 C96.908,251.016 98.348,249.648 98.708,247.776 C99.068,245.976 98.276,244.104 96.62,243.168 C87.404,237.552 77.253,233.952 67.461,230.352 C57.597,226.752 48.021,223.224 39.958,218.04 L37.582,221.784 L39.022,226.032 C42.55,224.808 46.726,224.016 51.045,223.512 C55.437,222.936 59.901,222.576 64.149,222.072 C66.165,221.856 67.749,220.344 68.037,218.328 C68.325,216.384 67.317,214.368 65.517,213.576 C56.517,209.4 46.942,205.512 38.158,200.976 C29.302,196.44 21.166,191.328 14.902,184.992 L11.734,188.16 L12.022,192.624 C19.294,192.12 27.07,192.48 34.99,191.976 C36.646,191.904 38.158,190.824 38.806,189.312 C39.454,187.8 39.238,186 38.158,184.704 C36.142,182.256 33.766,180.168 31.318,178.296 C27.574,175.488 23.614,173.112 19.87,170.808 C16.054,168.504 12.526,166.2 9.646,163.824 L6.767,167.28 L10.726,169.296 C11.518,167.712 12.454,166.488 13.534,165.48 C15.118,163.896 17.206,162.672 19.654,161.592 C22.102,160.44 24.982,159.432 28.078,158.28 L28.078,158.28 C47.949,150.432 67.533,143.16 88.268,139.201 C89.996,138.841 91.364,137.545 91.796,135.889 C92.228,134.233 91.652,132.433 90.284,131.353 C87.26,128.905 83.805,127.033 80.277,125.521 C74.949,123.289 69.333,121.921 63.861,120.769 C58.389,119.617 53.061,118.753 48.381,117.673 L47.373,121.993 L49.893,125.737 C50.757,125.161 52.269,124.513 54.213,124.081 C57.165,123.361 60.909,122.929 64.725,122.641 C68.541,122.353 72.285,122.209 75.453,121.849 C96.476,119.545 117.788,119.473 139.243,119.473 C141.259,119.473 143.275,119.473 145.291,119.473 C147.451,119.473 149.251,117.961 149.683,115.873 C150.115,113.785 148.963,111.697 146.947,110.905 C137.227,107.017 127.435,102.481 116.132,100.033 L115.196,104.425 L115.988,108.817 C123.979,107.305 132.187,106.801 140.611,106.801 C158.467,106.801 177.042,109.177 195.69,109.177 C200.009,109.177 204.329,109.033 208.721,108.745 C211.169,108.529 212.969,106.441 212.825,104.065 C212.609,100.393 211.097,97.009 208.649,94.561 C206.201,92.113 202.817,90.673 199.217,90.457 C196.77,90.313 194.61,92.113 194.466,94.561 C194.25,97.009 196.122,99.169 198.569,99.313 C201.809,99.601 204.905,99.601 207.929,99.673 C210.953,99.745 213.833,99.817 216.641,100.177 C228.377,101.617 240.472,104.569 252.28,107.737 C257.392,109.105 262.864,111.553 268.552,114.001 C274.239,116.449 280.143,118.825 286.407,119.833 C287.847,120.049 289.359,119.545 290.367,118.465 C291.375,117.385 291.807,115.873 291.447,114.433 C290.511,110.329 289.287,106.153 287.847,102.121 L283.671,103.633 L283.311,108.097 C291.303,108.745 299.367,111.265 307.359,114.649 C315.35,118.033 323.27,122.209 330.974,126.241 L330.974,126.241 C331.55,126.529 332.702,127.249 334.142,128.113 C336.59,129.625 339.974,131.857 343.79,134.233 C349.477,137.833 355.957,141.937 361.861,145.248 C364.813,146.904 367.549,148.344 370.069,149.352 C371.293,149.856 372.517,150.36 373.669,150.648 C374.821,151.008 375.973,151.224 377.269,151.224 C378.133,151.224 379.069,151.152 380.149,150.648 C380.653,150.432 381.229,150.072 381.733,149.64 C382.237,149.208 382.669,148.632 382.957,148.056 L378.997,145.968 L376.477,149.64 C380.005,152.088 383.677,156.048 387.132,161.016 C392.388,168.432 397.212,177.864 401.46,187.08 C405.708,196.368 409.452,205.368 412.62,212.208 C423.779,236.112 430.403,260.375 434.075,286.295 C434.651,290.399 435.371,294.287 436.451,298.103 C438.035,303.719 440.411,309.047 444.155,313.511 C447.899,318.047 452.939,321.575 459.419,323.879 L460.858,319.631 L456.395,320.135 C456.395,320.279 456.395,320.495 456.395,320.783 C456.395,321.431 456.323,322.295 456.179,323.087 C456.107,323.447 456.035,323.807 455.963,324.095 C455.891,324.383 455.819,324.527 455.819,324.599 L459.779,326.615 L461.074,322.367 C452.147,319.703 443.291,318.623 434.435,318.623 C422.411,318.623 410.388,320.567 398.076,323.231 C377.485,327.623 355.597,333.455 333.494,338.135 C311.39,342.815 289.071,346.415 267.688,346.415 C258.472,346.415 249.4,345.767 240.544,344.255 L239.752,348.647 L242.56,352.103 C246.592,348.791 253,343.895 259.552,339.791 C262.792,337.775 266.176,335.903 269.2,334.607 C272.224,333.311 274.959,332.591 276.903,332.519 C279.351,332.447 281.295,330.359 281.151,327.911 C281.079,325.463 278.991,323.519 276.543,323.591 C265.384,323.879 254.08,323.951 242.848,324.095 C236.44,324.167 229.457,324.815 222.401,325.391 C215.345,325.967 208.073,326.543 201.233,326.543 C193.314,326.543 185.898,325.823 179.778,323.735 L178.338,327.983 L181.29,331.295 C184.386,328.559 187.842,326.687 191.73,324.887 C195.618,323.159 199.937,321.575 204.401,319.343 C206.057,318.551 207.065,316.751 206.849,314.879 C206.633,313.007 205.337,311.495 203.537,310.991 C198.137,309.623 192.306,308.759 186.258,308.255 C180.138,307.751 173.802,307.535 167.466,307.535 C154.219,307.535 140.899,308.327 129.955,308.687 L130.099,313.151 L131.395,317.399 C136.579,315.815 142.627,314.159 148.531,311.711 C151.483,310.487 154.363,309.047 157.027,307.319 C159.69,305.591 162.21,303.575 164.37,301.127 C165.45,299.903 165.738,298.175 165.162,296.663 C164.586,295.151 163.218,294.071 161.562,293.783 C159.618,293.495 157.459,293.351 155.083,293.207 C150.907,292.991 146.155,292.847 141.259,292.631 C133.915,292.271 126.139,291.623 119.948,290.111 C116.852,289.391 114.116,288.383 112.028,287.231 C111.02,286.655 110.156,286.007 109.436,285.431 C108.716,284.783 108.212,284.135 107.78,283.487 L103.964,285.791 L104.468,290.255 C110.012,289.679 115.772,288.887 121.316,287.663 C123.187,287.231 124.627,285.719 124.771,283.775 C124.987,281.903 123.907,280.031 122.179,279.239 C117.356,277.007 111.236,274.703 105.044,272.903 C101.948,271.967 98.78,271.175 95.756,270.527 C92.732,269.879 89.78,269.447 87.116,269.303 L86.828,273.767 L88.124,278.015 L115.124,269.663 C117.5,268.943 118.796,266.423 118.076,264.047 C117.356,261.671 114.836,260.375 112.46,261.095 z" fill="#4A372E"/>
    <path d="M113.684,264.623 L86.684,272.975 C96.404,273.623 111.02,278.375 120.164,282.551 C114.908,283.703 109.292,284.495 103.82,285.071 C111.812,298.607 146.875,295.655 160.77,297.599 C153.715,305.807 140.323,309.335 129.883,312.503 C151.555,311.855 181.722,309.407 202.313,314.735 C193.89,318.839 185.25,320.999 178.122,327.335 C196.841,333.599 223.121,328.271 242.632,327.983 C253.864,327.839 265.168,327.767 276.399,327.479 C265.312,327.911 247.744,341.375 239.464,348.071 C290.511,356.855 348.973,337.703 398.652,327.047 C419.748,322.511 439.475,320.135 459.418,326.111 C460.354,324.383 460.642,321.071 460.498,319.199 C444.947,313.799 440.339,300.983 438.107,285.215 C434.363,258.936 427.667,234.168 416.292,209.832 C408.012,192.048 395.34,157.128 378.637,145.536 C375.757,151.152 339.902,125.521 332.702,121.849 C317.366,113.857 300.735,104.785 283.383,103.273 C284.751,107.161 285.903,111.121 286.839,115.081 C275.751,113.353 264.448,106.153 253.144,103.129 C241.264,99.961 229.025,96.937 216.857,95.425 C210.737,94.705 204.617,94.993 198.569,94.489 C203.825,94.849 207.785,98.593 208.073,103.849 C194.898,104.857 181.362,103.993 167.898,103.129 C150.043,101.977 132.187,100.825 114.908,103.993 C125.563,106.297 135.139,110.689 145.003,114.649 C121.531,114.649 97.988,114.505 74.661,117.097 C66.813,117.961 53.133,117.673 47.085,121.705 C60.117,124.729 76.533,125.953 87.188,134.521 C66.021,138.553 46.15,145.968 26.206,153.816 C18.358,156.912 10.582,159 6.551,167.064 C15.118,174.264 27.502,179.016 34.558,187.44 C26.926,187.944 19.15,187.584 11.59,188.088 C25.198,201.84 45.718,209.328 63.573,217.608 C55.293,218.544 45.358,219.048 37.438,221.784 C54.717,232.872 76.965,236.328 94.244,246.984 C89.276,247.848 83.589,247.848 77.901,247.848 C73.869,247.848 69.909,247.848 66.093,248.136 C79.701,256.344 98.708,262.895 114.044,264.119 L113.684,264.767 z" fill="#89694C"/>
    <path d="M430.259,273.839 C429.971,205.224 368.701,127.249 290.151,119.257 C258.328,116.017 208.073,117.313 175.746,120.625 C158.251,122.425 143.995,120.337 127.363,124.585 C113.828,128.113 93.308,137.689 80.349,142.584 C79.917,144.168 20.662,159.936 21.094,161.52 C39.31,164.184 103.46,165.408 122.539,166.632 C155.155,168.72 176.538,175.416 208.001,183.84 C253.72,196.152 290.511,222.648 342.638,248.928 C370.933,263.183 401.388,285.935 432.923,308.111 L430.331,273.623 z" fill="#74573C"/>
    <path d="M434.219,307.319 C358.909,257.856 290.295,212.568 203.897,182.976 C178.77,174.408 149.467,168.864 119.66,165.48 C89.852,162.096 59.541,160.872 32.614,160.872 C28.654,160.872 24.766,160.872 20.878,160.944 C19.51,160.944 18.43,162.096 18.43,163.464 C18.43,164.832 19.582,165.912 20.95,165.912 C24.766,165.84 28.654,165.84 32.614,165.84 C59.397,165.84 89.492,167.064 119.084,170.376 C148.675,173.688 177.69,179.16 202.313,187.584 C287.991,216.96 356.173,261.887 431.483,311.423 C432.635,312.143 434.147,311.855 434.939,310.703 C435.659,309.551 435.371,308.039 434.219,307.247 z" fill="#614734"/>
    <path d="M109.868,217.032 C114.476,209.688 120.164,204.288 126.787,200.328 C136.651,194.352 148.459,191.472 160.77,189.96 C173.154,188.448 185.97,188.376 197.921,187.8 C199.001,187.728 199.865,187.008 200.153,186 C200.441,184.992 200.081,183.912 199.145,183.264 C178.842,169.224 162.282,151.224 153.787,129.337 C153.283,128.041 151.843,127.393 150.547,127.897 C149.251,128.401 148.603,129.841 149.107,131.137 C158.107,154.248 175.386,172.896 196.266,187.368 L197.705,185.352 L197.561,182.904 C181.866,183.696 164.01,183.552 147.523,187.152 C139.243,188.952 131.323,191.76 124.123,196.08 C116.924,200.4 110.588,206.376 105.548,214.44 C104.828,215.592 105.188,217.104 106.34,217.824 C107.492,218.544 109.004,218.184 109.724,217.032 z" fill="#614734"/>
    <path d="M194.754,252.816 C201.233,246.984 209.081,241.224 217.433,236.4 C225.785,231.576 234.64,227.616 243.064,225.312 C248.176,223.872 254.656,223.44 260.992,222.72 C264.16,222.36 267.328,221.928 270.28,221.28 C273.231,220.632 276.111,219.696 278.559,218.328 C279.135,217.968 279.567,217.392 279.783,216.744 C279.927,216.096 279.855,215.376 279.423,214.8 C263.368,190.608 253.648,164.4 248.392,135.745 C247.384,130.417 246.952,124.657 246.304,118.825 C245.656,112.993 244.864,107.161 243.136,101.617 C242.704,100.321 241.336,99.601 240.04,99.961 C238.744,100.393 238.024,101.761 238.384,103.057 C239.896,108.097 240.688,113.641 241.336,119.329 C241.984,125.017 242.488,130.921 243.496,136.609 C248.824,165.768 258.76,192.696 275.247,217.536 L277.335,216.168 L276.111,214.008 C274.239,215.088 271.863,215.88 269.128,216.456 C265.096,217.32 260.344,217.824 255.592,218.256 C250.84,218.76 246.016,219.264 241.624,220.488 C232.697,222.936 223.481,227.04 214.841,232.08 C206.201,237.12 198.065,243.024 191.298,249.144 C190.29,250.08 190.218,251.664 191.154,252.672 C192.09,253.68 193.674,253.752 194.682,252.816 z" fill="#614734"/>
    <path d="M263.584,292.703 C266.824,288.023 271.432,283.055 276.903,278.231 C285.039,271.031 295.119,264.119 305.415,258.792 C315.71,253.464 326.222,249.792 335.078,248.856 C335.942,248.784 336.734,248.208 337.094,247.344 C337.454,246.552 337.31,245.544 336.806,244.824 C332.918,239.712 330.47,233.88 328.958,227.472 C327.446,220.992 326.942,213.936 326.942,206.592 C326.942,191.472 329.174,174.984 329.174,159.504 C329.174,149.28 328.238,139.489 324.854,130.633 C324.35,129.337 322.91,128.689 321.686,129.193 C320.39,129.697 319.742,131.137 320.246,132.361 C323.27,140.281 324.206,149.568 324.206,159.432 C324.206,174.48 321.974,190.896 321.974,206.52 C321.974,214.152 322.478,221.568 324.134,228.552 C325.718,235.536 328.454,242.088 332.846,247.848 L334.79,246.336 L334.502,243.888 C327.95,244.608 320.894,246.552 313.766,249.432 C303.039,253.752 292.167,260.016 282.591,267.143 C273.015,274.271 264.808,282.119 259.48,289.823 C258.688,290.975 258.976,292.487 260.128,293.279 C261.28,294.071 262.792,293.783 263.584,292.631 z" fill="#614734"/>
    <path d="M317.726,319.847 C318.374,313.007 321.038,307.391 325.214,302.639 C331.406,295.511 340.982,290.399 351.349,287.159 C361.645,283.919 372.661,282.551 381.589,282.551 C381.877,282.551 382.165,282.551 382.453,282.551 C383.749,282.551 384.9,281.543 384.972,280.247 C385.332,274.415 385.476,268.583 385.476,262.751 C385.476,238.92 383.101,214.8 382.741,191.4 C382.741,191.184 382.741,191.04 382.741,190.824 C382.741,187.872 383.029,184.272 383.029,180.6 C383.029,177.144 382.813,173.544 381.661,170.16 C381.085,168.504 380.365,166.848 379.285,165.408 C378.205,163.968 376.837,162.672 375.109,161.592 C373.957,160.872 372.373,161.232 371.725,162.456 C371.005,163.608 371.365,165.12 372.589,165.84 C373.741,166.56 374.605,167.352 375.325,168.288 C376.405,169.728 377.125,171.528 377.557,173.616 C377.989,175.704 378.133,178.08 378.133,180.528 C378.133,183.984 377.845,187.584 377.845,190.752 C377.845,190.968 377.845,191.184 377.845,191.4 C378.133,215.088 380.581,239.208 380.581,262.679 C380.581,268.439 380.437,274.199 380.077,279.887 L382.525,280.031 L382.525,277.583 C382.237,277.583 381.877,277.583 381.589,277.583 C369.061,277.583 352.933,280.103 339.254,286.511 C332.414,289.751 326.222,293.927 321.47,299.327 C316.718,304.727 313.55,311.423 312.83,319.343 C312.686,320.711 313.694,321.935 315.062,322.007 C316.43,322.151 317.654,321.143 317.726,319.775 z" fill="#614734"/>
    <path d="M190.218,34.369 L191.37,41.281 C196.194,40.489 201.017,40.057 205.697,40.057 C217.361,40.057 228.593,42.649 238.672,48.265 C248.752,53.881 257.824,62.593 265.24,75.409 C266.248,77.137 267.184,79.369 268.048,82.105 C269.272,86.137 270.28,91.033 270.856,96.289 C271.504,101.545 271.719,107.233 271.719,112.849 C271.719,118.897 271.359,124.873 270.784,130.273 C270.208,135.673 269.344,140.497 268.408,144.096 C266.032,153.024 261.928,160.512 256.384,166.92 C250.768,173.328 243.712,178.584 235.288,182.76 C217.577,191.616 197.057,195.288 176.538,195.288 C169.986,195.288 163.434,194.928 156.955,194.208 C155.515,194.064 153.859,193.92 151.843,193.776 C148.315,193.56 143.779,193.2 138.811,192.696 C131.323,191.904 122.755,190.608 115.124,188.376 C111.308,187.296 107.708,185.928 104.612,184.416 C101.516,182.904 98.924,181.104 97.052,179.232 C96.26,178.44 95.396,177.936 94.676,177.576 C93.308,176.928 92.228,176.64 91.148,176.352 C90.212,176.136 89.276,175.992 88.34,175.92 C86.756,175.704 85.172,175.632 83.661,175.488 C82.509,175.416 81.429,175.344 80.493,175.2 C79.773,175.128 79.125,175.056 78.621,174.984 C78.261,174.912 77.973,174.84 77.757,174.768 L77.613,174.696 L77.613,174.696 L77.613,174.696 L76.533,177.432 L78.405,175.2 C77.901,174.768 77.613,174.696 77.613,174.696 L76.533,177.432 L78.405,175.2 L75.237,179.088 L79.269,176.208 C78.981,175.776 78.621,175.488 78.405,175.272 L75.237,179.16 L79.269,176.28 L74.805,179.52 L80.061,177.936 C79.845,177.288 79.557,176.712 79.269,176.28 L74.805,179.52 L80.061,177.936 L76.389,179.016 L80.205,179.016 C80.205,178.728 80.133,178.368 80.061,177.936 L76.389,179.016 L80.205,179.016 L77.901,179.016 L80.133,179.52 C80.133,179.448 80.205,179.304 80.205,179.016 L77.901,179.016 L80.133,179.52 L79.557,179.376 L80.133,179.52 L80.133,179.52 L79.557,179.376 L80.133,179.52 L80.133,179.52 C80.133,179.448 80.277,179.16 80.565,178.656 C80.997,177.864 81.861,176.64 82.797,175.272 C83.517,174.264 84.38,173.184 85.244,172.104 C86.54,170.448 87.836,168.648 88.988,166.704 C89.564,165.696 90.068,164.688 90.572,163.536 C91.004,162.384 91.436,161.016 91.436,159.288 C91.652,149.784 94.172,139.273 97.844,129.121 C101.444,118.969 106.124,109.177 110.156,101.041 C117.5,86.281 129.451,72.673 143.851,62.161 C158.179,51.649 174.954,44.161 191.442,41.353 L190.29,34.441 L189.138,27.529 C170.202,30.769 151.627,39.121 135.643,50.857 C119.66,62.593 106.196,77.713 97.7,94.777 C93.524,103.129 88.628,113.425 84.74,124.441 C80.853,135.457 77.829,147.336 77.541,159 L79.773,159.072 L77.541,158.496 C77.541,158.568 77.469,158.712 77.469,159 L79.701,159.072 L77.469,158.496 L77.973,158.64 L77.469,158.496 L77.469,158.496 L77.973,158.64 L77.469,158.496 L77.469,158.568 C77.397,158.712 77.253,159.072 76.965,159.576 C76.461,160.44 75.597,161.664 74.589,162.96 C73.077,164.976 71.277,167.208 69.693,169.656 C68.901,170.88 68.109,172.176 67.461,173.616 C67.101,174.336 66.813,175.128 66.597,175.992 C66.381,176.856 66.237,177.864 66.237,178.944 C66.237,179.88 66.381,180.816 66.669,181.896 C67.101,183.264 67.821,184.416 68.613,185.208 C69.333,186 70.125,186.504 70.773,186.936 C72.069,187.656 73.149,188.016 74.229,188.304 C75.165,188.52 76.029,188.736 76.965,188.88 C78.477,189.096 80.061,189.24 81.501,189.384 C83.733,189.528 85.82,189.672 87.188,189.888 C87.908,189.96 88.412,190.104 88.484,190.176 L88.484,190.176 L89.132,188.232 L88.124,190.032 C88.34,190.176 88.412,190.176 88.412,190.176 L89.06,188.232 L88.052,190.032 L90.212,186.072 L87.044,189.312 C87.476,189.744 87.836,189.96 88.052,190.032 L90.212,186.072 L87.044,189.312 C89.492,191.76 92.3,193.776 95.324,195.432 C100.58,198.456 106.412,200.616 112.316,202.2 C121.244,204.648 130.459,205.944 138.307,206.736 C142.195,207.096 145.795,207.384 148.747,207.6 C150.187,207.672 151.555,207.816 152.635,207.888 C153.787,207.96 154.723,208.032 155.371,208.104 C162.282,208.824 169.338,209.256 176.394,209.256 C198.497,209.256 221.177,205.368 241.336,195.288 C251.128,190.392 259.768,184.056 266.752,176.136 C273.735,168.216 278.919,158.712 281.799,147.696 C283.023,143.16 283.887,137.761 284.535,131.857 C285.183,125.953 285.543,119.473 285.543,112.921 C285.543,104.785 284.967,96.505 283.743,88.873 C283.095,85.057 282.303,81.385 281.223,78.001 C280.143,74.545 278.847,71.377 277.191,68.497 C268.696,53.737 257.68,43.009 245.296,36.097 C232.913,29.185 219.305,26.161 205.553,26.161 C200.009,26.161 194.394,26.665 188.85,27.601 L190.002,34.513 z" fill="#4A372E"/>
    <path d="M190.218,34.369 C221.033,29.113 252.136,38.689 271.359,71.881 C281.007,88.513 280.071,127.609 275.247,145.824 C269.992,165.768 256.6,179.88 238.456,188.952 C213.401,201.48 183.81,204 156.307,201.12 C146.659,200.112 107.852,199.536 92.156,184.2 C89.492,181.608 74.445,183.336 73.365,179.808 C71.853,174.768 84.308,164.616 84.452,159.072 C84.884,137.833 95.684,114.289 103.892,97.801 C119.732,65.977 154.795,40.345 190.218,34.369 z" fill="#C1763D"/>
    <path d="M184.602,36.529 L179.922,41.713 C184.89,46.177 190.074,51.721 194.97,57.985 C202.385,67.417 209.297,78.361 214.697,89.521 C220.097,100.609 224.057,111.913 225.569,121.705 C226.793,129.481 227.153,138.409 227.225,147.48 C227.297,154.248 227.225,161.16 227.297,167.64 C227.369,172.536 227.513,177.288 227.945,181.68 C228.233,184.992 228.737,188.16 229.385,191.112 C229.889,193.344 230.609,195.504 231.473,197.52 C232.121,199.032 232.985,200.472 233.993,201.912 C235.504,204 237.52,205.8 239.968,207.096 C242.416,208.392 245.224,208.968 248.032,208.968 C250.552,208.968 253.072,208.536 255.736,207.672 C259.624,206.448 263.728,204.432 268.336,201.624 C272.871,198.816 277.911,195.144 283.599,190.536 C294.183,181.896 301.527,170.952 306.207,159 C310.886,146.976 312.83,134.017 312.83,120.913 C312.83,108.169 310.958,95.425 307.647,83.329 C304.335,71.233 299.655,59.857 293.967,49.993 C287.559,38.833 278.703,29.185 268.408,21.626 C258.112,13.994 246.304,8.378 233.921,5.282 L233.921,5.282 L233.777,5.21 L233.777,5.21 C230.969,4.562 227.945,3.986 224.633,3.626 C221.321,3.266 217.865,3.05 214.193,3.05 C209.441,3.05 204.473,3.41 199.577,4.202 C195.906,4.778 192.234,5.642 188.778,6.794 C183.522,8.594 178.554,11.042 174.306,14.714 C172.218,16.514 170.346,18.674 168.762,21.05 C167.25,23.498 166.026,26.161 165.306,29.113 L163.218,37.537 L171.93,37.753 C172.722,37.753 173.37,37.897 173.946,38.041 C174.81,38.257 175.53,38.545 176.466,39.121 C177.402,39.697 178.482,40.561 179.778,41.713 L184.458,36.529 L189.138,31.345 C188.058,30.409 186.978,29.473 185.754,28.609 C183.954,27.313 181.938,26.089 179.706,25.297 C177.402,24.433 174.882,24.002 172.29,23.93 L172.146,30.913 L178.914,32.569 C179.202,31.273 179.706,30.121 180.354,29.041 C181.434,27.169 183.09,25.513 185.25,24.002 C188.49,21.698 193.026,19.898 198.137,18.746 C203.249,17.594 208.865,17.09 214.265,17.09 C217.361,17.09 220.385,17.234 223.193,17.594 C225.929,17.882 228.449,18.314 230.537,18.818 L230.609,18.818 L230.681,18.818 L230.681,18.818 L230.681,18.818 C241.264,21.41 251.416,26.305 260.2,32.785 C269.056,39.337 276.543,47.545 281.943,56.905 C286.983,65.617 291.231,75.985 294.255,87.001 C297.207,98.017 298.935,109.609 298.935,120.985 C298.935,132.649 297.135,143.952 293.247,154.032 C289.359,164.112 283.383,172.896 274.815,179.808 C267.76,185.568 261.928,189.528 257.392,191.904 C255.16,193.128 253.216,193.92 251.632,194.424 C250.048,194.928 248.896,195.072 248.104,195.072 C247.456,195.072 247.096,195 246.808,194.928 C246.52,194.856 246.376,194.712 246.16,194.568 C245.944,194.424 245.728,194.136 245.44,193.776 C244.936,193.056 244.288,191.832 243.712,190.104 C242.704,187.08 242.056,182.616 241.768,177.36 C241.264,169.44 241.408,159.792 241.336,149.784 C241.264,139.777 240.976,129.337 239.464,119.689 C238.24,111.913 235.864,103.849 232.697,95.713 C227.945,83.545 221.321,71.377 213.833,60.289 C206.345,49.201 197.921,39.193 189.354,31.489 L184.674,36.673 z" fill="#4A372E"/>
    <path d="M184.602,36.529 C206.057,55.681 227.945,92.041 232.553,120.625 C239.608,164.688 219.089,234.168 279.207,185.136 C316.934,154.464 309.734,91.177 287.991,53.377 C276.183,32.857 255.304,17.666 232.337,11.978 L232.193,11.906 C214.625,7.586 177.546,9.17 172.218,30.769 C177.33,30.913 180.714,33.001 184.602,36.457 z" fill="#614734"/>
    <path d="M285.615,65.257 C286.407,65.257 287.199,65.329 287.919,65.329 C293.031,65.329 297.567,64.753 301.671,63.601 C304.767,62.737 307.575,61.513 310.094,60.073 C313.91,57.913 317.222,55.321 320.318,52.513 C323.414,49.705 326.366,46.753 329.75,43.729 L324.638,38.185 L319.31,43.585 C319.454,43.729 319.67,43.945 319.886,44.305 C320.246,44.881 320.606,45.889 320.894,47.185 C321.326,49.129 321.542,51.793 321.614,54.673 C321.686,56.113 321.686,57.553 321.758,59.065 C321.83,60.577 321.902,62.089 322.118,63.673 L329.606,62.809 L326.294,56.041 C322.91,57.697 319.67,59.569 316.502,61.369 C311.678,64.105 307.071,66.697 302.535,68.497 C300.303,69.433 298.143,70.153 295.983,70.657 C293.823,71.161 291.807,71.449 289.719,71.449 C289.647,71.449 289.503,71.449 289.431,71.449 L289.287,86.569 C289.431,86.569 289.575,86.569 289.719,86.569 C294.183,86.569 298.503,85.777 302.463,84.553 C308.439,82.753 313.91,80.017 318.95,77.209 C323.99,74.473 328.67,71.665 332.918,69.577 L337.742,67.201 L337.094,61.873 C336.95,60.433 336.806,58.417 336.734,56.185 C336.662,54.529 336.59,52.729 336.518,50.857 C336.302,48.049 335.942,45.025 335.078,41.929 C334.646,40.417 333.998,38.833 333.206,37.249 C332.342,35.737 331.262,34.153 329.894,32.857 L324.782,27.745 L319.454,32.641 C316.286,35.593 313.622,38.185 311.174,40.417 C309.302,42.073 307.647,43.513 305.991,44.737 C303.543,46.537 301.239,47.833 298.431,48.697 C295.695,49.633 292.383,50.137 287.847,50.137 C287.271,50.137 286.623,50.137 286.047,50.137 L285.543,65.257 z" fill="#4A372E"/>
    <path d="M283.599,58.921 C303.399,59.569 309.662,51.073 322.406,39.337 C327.95,44.809 326.51,56.257 327.374,63.889 C314.846,70.081 301.671,80.233 287.127,80.089 L283.599,58.921 z" fill="#614734"/>
    <path d="M101.372,183.768 C103.676,185.856 106.844,187.584 110.66,189.024 C116.42,191.184 123.619,192.696 131.683,193.632 C139.747,194.568 148.531,195.072 157.531,195.072 C169.41,195.072 181.434,194.28 191.946,192.912 C202.457,191.544 211.313,189.672 217.073,187.296 C217.649,187.08 217.937,186.36 217.721,185.784 C217.505,185.208 216.785,184.92 216.209,185.136 C210.809,187.368 202.025,189.24 191.658,190.608 C181.29,191.976 169.338,192.696 157.603,192.696 C145.795,192.696 134.131,191.904 124.483,190.176 C119.66,189.312 115.268,188.16 111.596,186.864 C107.924,185.496 105.044,183.912 103.1,182.04 C102.596,181.608 101.876,181.608 101.444,182.112 C101.012,182.616 101.012,183.336 101.516,183.768 z" fill="#4A372E"/>
    <path d="M165.45,49.921 C164.442,49.921 163.434,49.993 162.426,50.137 C137.083,54.097 118.868,88.513 108.284,108.817 C104.756,115.585 83.085,160.368 100.22,163.104 C100.508,163.176 100.724,163.176 101.012,163.176 C101.3,163.176 101.66,163.176 101.948,163.104 C110.804,161.52 119.444,138.049 121.028,131.713 C126.787,107.953 134.995,87.577 160.41,80.377 C169.842,77.713 182.298,76.849 181.866,64.105 C181.578,54.889 173.442,49.993 165.378,49.993 z" fill="#DFB189"/>
    <path d="M213.689,34.081 C213.689,37.249 211.169,39.769 208.001,39.769 C204.833,39.769 202.313,37.249 202.313,34.081 C202.313,30.913 204.833,28.393 208.001,28.393 C211.169,28.393 213.689,30.913 213.689,34.081 z" fill="#4A372E"/>
    <path d="M283.383,98.089 C283.383,101.257 280.863,103.777 277.695,103.777 C274.527,103.777 272.007,101.257 272.007,98.089 C272.007,94.921 274.527,92.401 277.695,92.401 C280.863,92.401 283.383,94.921 283.383,98.089 z" fill="#4A372E"/>
    <path d="M256.312,181.896 C256.312,185.064 253.792,187.584 250.624,187.584 C247.456,187.584 244.936,185.064 244.936,181.896 C244.936,178.728 247.456,176.208 250.624,176.208 C253.792,176.208 256.312,178.728 256.312,181.896 z" fill="#4A372E"/>
    <path d="M239.248,51.145 C239.248,54.313 236.728,56.833 233.561,56.833 C230.393,56.833 227.873,54.313 227.873,51.145 C227.873,47.977 230.393,45.457 233.561,45.457 C236.728,45.457 239.248,47.977 239.248,51.145 z" fill="#4A372E"/>
    <path d="M258.472,70.369 C258.472,73.537 255.952,76.057 252.784,76.057 C249.616,76.057 247.096,73.537 247.096,70.369 C247.096,67.201 249.616,64.681 252.784,64.681 C255.952,64.681 258.472,67.201 258.472,70.369 z" fill="#4A372E"/>
    <path d="M247.816,34.081 C247.816,37.249 245.296,39.769 242.128,39.769 C238.96,39.769 236.44,37.249 236.44,34.081 C236.44,30.913 238.96,28.393 242.128,28.393 C245.296,28.393 247.816,30.913 247.816,34.081 z" fill="#4A372E"/>
    <path d="M240.688,81.025 C240.688,84.193 238.168,86.713 235,86.713 C231.833,86.713 229.313,84.193 229.313,81.025 C229.313,77.857 231.833,75.337 235,75.337 C238.168,75.337 240.688,77.857 240.688,81.025 z" fill="#4A372E"/>
    <path d="M257.752,105.145 C257.752,108.313 255.232,110.833 252.064,110.833 C248.896,110.833 246.376,108.313 246.376,105.145 C246.376,101.977 248.896,99.457 252.064,99.457 C255.232,99.457 257.752,101.977 257.752,105.145 z" fill="#4A372E"/>
    <path d="M290.439,130.777 C290.439,133.945 287.919,136.465 284.751,136.465 C281.583,136.465 279.063,133.945 279.063,130.777 C279.063,127.609 281.583,125.089 284.751,125.089 C287.919,125.089 290.439,127.609 290.439,130.777 z" fill="#4A372E"/>
    <path d="M254.944,139.273 C254.944,142.441 252.424,144.96 249.256,144.96 C246.088,144.96 243.568,142.441 243.568,139.273 C243.568,136.105 246.088,133.585 249.256,133.585 C252.424,133.585 254.944,136.105 254.944,139.273 z" fill="#4A372E"/>
    <path d="M276.255,150.648 C276.255,153.816 273.735,156.336 270.568,156.336 C267.4,156.336 264.88,153.816 264.88,150.648 C264.88,147.48 267.4,144.96 270.568,144.96 C273.735,144.96 276.255,147.48 276.255,150.648 z" fill="#4A372E"/>
    <path d="M389.508,112.849 L392.604,106.585 C380.077,100.321 366.397,96.649 352.501,96.649 C342.854,96.649 333.134,98.449 323.63,102.265 C314.126,106.081 304.911,112.057 296.199,120.121 C293.967,122.209 292.023,124.585 290.151,127.177 C286.911,131.785 284.103,137.113 281.583,142.873 C277.839,151.512 274.815,161.016 272.583,170.088 C271.504,174.624 270.568,179.016 269.992,183.12 C269.344,187.224 268.912,191.112 268.84,194.568 C268.84,195.432 268.768,196.368 268.768,197.232 C268.768,208.032 271.144,218.112 275.535,227.256 C279.855,236.4 286.119,244.608 293.751,251.808 C304.551,262.031 317.222,270.023 330.686,276.071 C344.15,282.119 358.333,286.367 372.373,289.031 C373.021,289.175 374.029,289.391 375.181,289.607 C377.269,290.039 379.933,290.687 382.957,291.335 C387.564,292.343 393.108,293.423 399.084,294.287 C405.06,295.151 411.468,295.799 417.804,295.799 C424.571,295.799 431.339,295.079 437.603,293.063 L436.883,290.975 L437.387,293.135 C437.459,293.135 437.531,293.135 437.603,293.063 L436.883,290.975 L437.387,293.135 L437.171,292.199 L437.315,293.135 L437.387,293.135 L437.171,292.199 L437.315,293.135 L437.315,293.135 C437.315,293.135 437.459,293.135 437.603,293.135 C438.107,293.135 439.043,293.207 440.267,293.423 C442.067,293.711 444.227,294.215 446.603,294.719 C447.755,294.935 448.979,295.151 450.203,295.367 C451.427,295.511 452.723,295.655 454.019,295.655 C455.459,295.655 456.971,295.511 458.699,294.935 C459.562,294.647 460.498,294.215 461.434,293.567 C462.37,292.919 463.162,292.055 463.882,291.047 C464.674,289.823 465.106,288.671 465.322,287.591 C465.538,286.511 465.61,285.503 465.61,284.567 C465.61,283.415 465.466,282.335 465.322,281.327 C465.034,279.527 464.602,277.799 464.17,276.071 C463.45,273.551 462.658,271.031 462.082,268.943 C461.794,267.863 461.578,266.927 461.434,266.207 C461.29,265.487 461.218,264.911 461.218,264.695 L461.218,264.623 L459.275,264.551 L461.074,265.055 C461.146,264.767 461.146,264.623 461.146,264.623 L459.203,264.551 L461.002,265.055 C463.594,256.128 464.458,246.552 464.458,237.192 C464.458,222.72 462.37,208.536 460.426,197.304 C457.187,178.512 448.763,160.152 436.811,144.312 C424.931,128.473 409.596,115.081 392.388,106.513 L389.292,112.777 L386.196,119.041 C401.172,126.457 414.996,138.481 425.723,152.736 C436.451,166.992 443.939,183.48 446.675,199.68 C448.547,210.624 450.491,224.16 450.491,237.264 C450.491,245.76 449.627,254.112 447.611,261.311 C447.251,262.607 447.179,263.759 447.179,264.767 C447.179,265.919 447.323,266.927 447.467,267.935 C447.755,269.663 448.187,271.391 448.619,273.047 C449.339,275.567 450.131,278.015 450.707,280.175 C450.995,281.255 451.211,282.191 451.355,282.983 C451.499,283.775 451.571,284.351 451.571,284.639 L451.571,284.711 L451.571,284.711 L453.299,284.855 L451.643,284.351 C451.571,284.567 451.571,284.711 451.571,284.711 L453.299,284.855 L451.643,284.351 L455.243,285.431 L452.147,283.343 C451.859,283.775 451.715,284.135 451.643,284.351 L455.243,285.431 L452.147,283.343 L455.747,285.719 L453.227,282.263 C452.867,282.551 452.435,282.911 452.147,283.343 L455.747,285.719 L453.227,282.263 L454.955,284.711 L454.307,281.759 C454.235,281.759 453.803,281.903 453.227,282.263 L454.955,284.711 L454.307,281.759 L454.451,282.335 L454.379,281.759 L454.307,281.759 L454.451,282.335 L454.379,281.759 C454.379,281.759 454.235,281.759 454.019,281.759 C453.443,281.759 452.507,281.687 451.283,281.471 C449.483,281.183 447.251,280.679 444.947,280.175 C443.795,279.959 442.643,279.743 441.419,279.527 C440.195,279.383 438.971,279.239 437.603,279.239 C436.307,279.239 434.867,279.383 433.139,279.887 C428.963,281.327 423.563,281.975 417.804,281.975 C409.524,281.975 400.452,280.679 392.748,279.239 C388.86,278.519 385.332,277.727 382.309,277.007 C380.797,276.647 379.429,276.359 378.205,276.071 C376.981,275.783 375.901,275.567 374.965,275.351 C361.861,272.831 348.685,268.943 336.446,263.399 C324.206,257.856 312.902,250.656 303.399,241.728 C296.847,235.536 291.663,228.696 288.207,221.352 C284.679,214.008 282.807,206.016 282.807,197.304 C282.807,196.584 282.807,195.864 282.879,195.144 C283.023,190.968 283.743,185.424 284.967,179.304 C286.839,170.16 289.791,159.792 293.535,150.72 C295.407,146.184 297.423,142.009 299.511,138.481 C301.599,134.953 303.831,132.145 305.775,130.273 C313.334,123.217 321.038,118.321 328.886,115.153 C336.734,111.985 344.582,110.545 352.501,110.545 C363.949,110.545 375.469,113.569 386.412,119.041 L389.508,112.777 z" fill="#4A372E"/>
    <path d="M389.508,112.849 C361.501,98.953 328.958,99.025 301.023,125.233 C286.983,138.409 276.543,176.064 275.823,194.856 C275.103,215.448 283.815,232.8 298.575,246.768 C318.878,265.991 346.526,277.007 373.669,282.191 C382.525,283.847 415.212,293.207 435.443,286.511 C437.747,285.719 441.779,286.583 445.811,287.447 C451.067,288.599 456.395,289.679 458.051,287.231 C460.858,282.983 453.011,268.367 454.451,263.183 C460.354,242.664 456.827,216.816 453.731,198.528 C447.755,163.464 421.691,128.833 389.508,112.777 z" fill="#BE9778"/>
    <path d="M394.26,116.593 L391.308,110.257 C384.324,113.497 377.125,117.745 370.069,122.713 C359.413,130.201 348.973,139.273 339.83,149.136 C330.686,159 322.91,169.512 317.798,180.168 C314.054,187.872 311.102,196.368 308.439,204.72 C306.423,210.984 304.623,217.248 302.823,223.08 C301.455,227.4 300.159,231.504 298.791,235.104 C297.783,237.84 296.703,240.216 295.695,242.304 C294.903,243.888 294.111,245.184 293.391,246.264 C292.239,247.92 291.231,248.928 290.511,249.432 C290.151,249.72 289.863,249.792 289.647,249.864 C289.431,249.936 289.215,250.008 288.927,250.008 C288.495,250.008 287.703,249.864 286.407,249.288 C285.471,248.856 284.319,248.136 282.951,247.056 C280.935,245.472 278.487,243.096 275.751,239.856 C273.015,236.616 269.92,232.512 266.536,227.544 C262.936,222.144 260.344,216.456 258.616,210.408 C256.96,204.432 256.168,198.168 256.168,191.688 C256.168,176.568 260.56,160.512 267.76,145.824 C274.887,131.137 284.823,117.745 295.263,107.881 C302.679,100.969 311.534,95.497 321.11,91.825 C330.758,88.153 341.054,86.209 351.277,86.209 C352.645,86.209 354.013,86.209 355.309,86.281 L355.453,86.281 L355.453,86.281 L355.453,86.281 C359.269,86.497 364.309,87.289 369.565,88.801 C373.525,89.881 377.629,91.321 381.445,93.121 C384.324,94.417 387.06,95.929 389.508,97.513 C393.18,99.961 396.132,102.625 398.004,105.361 C398.94,106.729 399.66,108.097 400.092,109.465 C400.524,110.833 400.812,112.201 400.812,113.713 C400.812,113.929 400.812,114.217 400.812,114.433 L407.796,114.793 L409.668,108.097 C407.58,107.521 405.492,107.233 403.476,107.233 C401.172,107.233 399.012,107.593 396.996,108.169 C394.98,108.745 393.108,109.537 391.308,110.329 L394.26,116.665 L397.212,123.001 C398.652,122.353 399.876,121.849 400.884,121.561 C401.892,121.273 402.684,121.129 403.476,121.129 C404.196,121.129 404.916,121.201 405.924,121.489 L414.348,123.793 L414.78,115.081 C414.78,114.577 414.852,114.073 414.852,113.641 C414.852,110.041 414.132,106.513 412.836,103.417 C411.684,100.681 410.172,98.089 408.372,95.857 C405.204,91.825 401.316,88.513 396.996,85.705 C390.516,81.457 383.245,78.361 376.117,76.201 C372.589,75.121 369.061,74.257 365.677,73.609 C362.365,72.961 359.197,72.601 356.245,72.385 L356.245,72.385 L356.101,72.385 L356.101,72.385 L356.101,72.385 C354.517,72.313 352.933,72.241 351.349,72.241 C339.326,72.241 327.374,74.473 316.142,78.793 C304.911,83.113 294.471,89.449 285.687,97.729 C273.879,108.889 263.08,123.433 255.16,139.705 C247.24,155.976 242.2,173.904 242.128,191.688 C242.128,199.248 243.064,206.808 245.152,214.224 C247.24,221.568 250.408,228.696 254.944,235.32 C261.352,244.824 266.896,251.592 272.223,256.344 C274.887,258.72 277.479,260.591 280.287,261.887 C283.023,263.183 285.903,263.975 288.855,263.975 C290.727,263.975 292.527,263.687 294.183,263.111 C295.767,262.535 297.207,261.815 298.503,260.879 C300.951,259.151 302.895,256.992 304.551,254.616 C307.503,250.44 309.734,245.472 311.822,239.928 C314.918,231.648 317.582,222.144 320.534,212.712 C323.414,203.28 326.582,193.92 330.326,186.288 C333.206,180.384 337.31,174.048 342.206,167.856 C349.549,158.568 358.693,149.424 368.341,141.577 C377.989,133.729 388.14,127.177 397.212,123.001 L394.26,116.665 z" fill="#4A372E"/>
    <path d="M394.26,116.593 C368.197,128.689 336.662,157.128 324.062,183.192 C304.551,223.368 304.119,295.727 260.704,231.432 C233.489,191.112 258.688,132.649 290.439,102.841 C307.719,86.641 332.054,78.145 355.741,79.297 L355.885,79.297 C373.957,80.305 409.02,92.473 407.796,114.721 C402.9,113.353 399.012,114.433 394.332,116.593 z" fill="#89694C"/>
    <path d="M296.559,99.673 C292.167,98.521 288.423,97.153 285.327,95.641 C280.647,93.409 277.119,90.817 273.879,87.505 C270.64,84.193 267.688,80.017 264.592,74.761 L260.92,68.497 L254.512,71.881 C253,72.673 251.632,73.681 250.48,74.761 C248.464,76.633 247.024,78.793 245.8,80.881 C244,84.049 242.848,87.289 241.84,90.241 C241.336,91.681 240.904,93.121 240.4,94.345 C239.968,95.569 239.536,96.721 239.176,97.585 L237.016,102.481 L240.904,106.153 C243.208,108.313 245.656,110.905 248.248,113.569 C252.064,117.601 256.24,121.921 260.992,125.809 C263.368,127.753 265.96,129.553 268.768,131.209 C271.576,132.793 274.599,134.161 277.839,135.097 L282.015,120.553 C279.351,119.761 276.831,118.537 274.311,116.881 C270.496,114.361 266.752,110.905 262.936,107.089 C259.12,103.273 255.376,99.025 251.2,95.137 L246.016,100.681 L252.928,103.705 C253.864,101.545 254.584,99.313 255.304,97.225 C256.384,94.057 257.464,91.033 258.544,88.873 C259.12,87.793 259.696,86.929 260.128,86.353 C260.632,85.777 260.992,85.489 261.352,85.345 L257.824,78.649 L251.272,82.465 C253.576,86.425 255.952,90.025 258.544,93.337 C262.504,98.305 267.04,102.697 272.655,106.153 C278.199,109.681 284.679,112.345 292.383,114.361 L296.271,99.745 z" fill="#4A372E"/>
    <path d="M298.071,107.737 C278.919,102.625 270.28,94.201 261.496,79.297 C254.584,82.969 252.712,94.345 249.616,101.329 C259.84,110.833 269.488,124.441 283.455,128.473 L298.071,107.737 z" fill="#89694C"/>
    <path d="M430.259,279.455 C427.163,280.967 422.627,281.687 417.228,281.687 C410.172,281.687 401.532,280.463 392.388,278.447 C378.637,275.423 363.661,270.527 350.701,265.271 C344.222,262.607 338.246,259.871 333.134,257.208 C328.022,254.544 323.846,251.952 321.038,249.648 C320.534,249.216 319.814,249.288 319.382,249.792 C318.95,250.296 319.022,251.016 319.526,251.448 C323.558,254.76 329.822,258.359 337.454,262.031 C348.901,267.503 363.301,272.975 377.629,277.151 C391.956,281.255 406.14,284.063 417.156,284.063 C422.771,284.063 427.595,283.343 431.195,281.615 C431.771,281.327 431.987,280.607 431.771,280.031 C431.483,279.455 430.763,279.239 430.187,279.455 z" fill="#4A372E"/>
    <path d="M403.044,134.089 C396.996,134.089 391.164,137.041 388.932,143.664 C384.828,155.76 396.492,160.152 404.772,165.48 C426.947,179.808 428.891,201.696 427.595,226.032 C427.235,232.512 428.747,257.496 436.739,261.599 C437.243,261.887 437.819,262.031 438.395,262.103 C438.827,262.175 439.187,262.175 439.547,262.175 C455.171,262.175 447.755,215.088 446.387,207.816 C442.139,185.28 434.651,147.12 411.54,135.961 C408.876,134.665 405.924,134.017 403.044,134.017 z" fill="#DBC5B1"/>
    <path d="M367.117,105.793 C366.181,108.817 367.909,111.985 370.933,112.849 C373.957,113.785 377.125,112.057 377.989,109.033 C378.925,106.009 377.197,102.841 374.173,101.977 C371.149,101.041 367.981,102.769 367.117,105.793 z" fill="#4A372E"/>
    <path d="M281.943,146.832 C281.007,149.856 282.735,153.024 285.759,153.888 C288.783,154.824 291.951,153.096 292.815,150.072 C293.751,147.048 292.023,143.88 288.999,143.016 C285.975,142.08 282.807,143.808 281.943,146.832 z" fill="#4A372E"/>
    <path d="M283.455,234.888 C282.519,237.912 284.247,241.08 287.271,241.944 C290.295,242.88 293.463,241.152 294.327,238.128 C295.263,235.104 293.535,231.936 290.511,231.072 C287.487,230.136 284.319,231.864 283.455,234.888 z" fill="#4A372E"/>
    <path d="M337.67,114.649 C336.734,117.673 338.462,120.841 341.486,121.705 C344.51,122.641 347.677,120.913 348.541,117.889 C349.477,114.865 347.749,111.697 344.726,110.833 C341.702,109.897 338.534,111.625 337.67,114.649 z" fill="#4A372E"/>
    <path d="M313.766,127.465 C312.83,130.489 314.558,133.657 317.582,134.521 C320.606,135.457 323.774,133.729 324.638,130.705 C325.574,127.681 323.846,124.513 320.822,123.649 C317.798,122.713 314.63,124.441 313.766,127.465 z" fill="#4A372E"/>
    <path d="M334.502,95.857 C333.566,98.881 335.294,102.049 338.318,102.913 C341.342,103.849 344.51,102.121 345.374,99.097 C346.31,96.073 344.582,92.905 341.558,92.041 C338.534,91.105 335.366,92.833 334.502,95.857 z" fill="#4A372E"/>
    <path d="M327.662,142.872 C326.726,145.896 328.454,149.064 331.478,149.928 C334.502,150.864 337.67,149.136 338.534,146.112 C339.47,143.088 337.742,139.921 334.718,139.057 C331.694,138.121 328.526,139.849 327.662,142.872 z" fill="#4A372E"/>
    <path d="M304.335,161.016 C303.399,164.04 305.127,167.208 308.151,168.072 C311.174,169.008 314.342,167.28 315.206,164.256 C316.142,161.232 314.414,158.064 311.39,157.2 C308.367,156.264 305.199,157.992 304.335,161.016 z" fill="#4A372E"/>
    <path d="M265.672,176.064 C264.736,179.088 266.464,182.256 269.488,183.12 C272.511,184.056 275.679,182.328 276.543,179.304 C277.479,176.28 275.751,173.112 272.727,172.248 C269.704,171.312 266.536,173.04 265.672,176.064 z" fill="#4A372E"/>
    <path d="M297.207,194.496 C296.271,197.52 297.999,200.688 301.023,201.552 C304.047,202.488 307.215,200.76 308.079,197.736 C309.014,194.712 307.287,191.544 304.263,190.68 C301.239,189.744 298.071,191.472 297.207,194.496 z" fill="#4A372E"/>
    <path d="M273.519,199.176 C272.583,202.2 274.311,205.368 277.335,206.232 C280.359,207.168 283.527,205.44 284.391,202.416 C285.327,199.392 283.599,196.224 280.575,195.36 C277.551,194.424 274.383,196.152 273.519,199.176 z" fill="#4A372E"/>
  </g>
</svg>
